<<<<<<< HEAD
<mxfile host="Electron" agent="Mozilla/5.0 (Windows NT 10.0; Win64; x64) AppleWebKit/537.36 (KHTML, like Gecko) draw.io/24.7.17 Chrome/128.0.6613.36 Electron/32.0.1 Safari/537.36" version="24.7.17">
  <diagram name="Sivu-1" id="S3V-3oTMrV3wkttXghbh">
    <mxGraphModel dx="1434" dy="956" grid="1" gridSize="10" guides="1" tooltips="1" connect="1" arrows="1" fold="1" page="1" pageScale="1" pageWidth="1169" pageHeight="827" math="0" shadow="0">
      <root>
        <mxCell id="0" />
        <mxCell id="1" parent="0" />
        <mxCell id="iajtI-PUkXcmTMDwEMEo-1" value="cryptography" style="shape=process;whiteSpace=wrap;html=1;backgroundOutline=1;fillColor=#e6d0de;gradientColor=#d5739d;strokeColor=#996185;" vertex="1" parent="1">
          <mxGeometry x="40" y="330" width="120" height="60" as="geometry" />
        </mxCell>
        <mxCell id="iajtI-PUkXcmTMDwEMEo-3" value="administrative.py" style="shape=document;whiteSpace=wrap;html=1;boundedLbl=1;fillColor=#fff2cc;strokeColor=#d6b656;gradientColor=#ffd966;" vertex="1" parent="1">
          <mxGeometry x="570" y="440" width="120" height="80" as="geometry" />
        </mxCell>
        <mxCell id="iajtI-PUkXcmTMDwEMEo-13" style="edgeStyle=orthogonalEdgeStyle;rounded=0;orthogonalLoop=1;jettySize=auto;html=1;entryX=0;entryY=0.5;entryDx=0;entryDy=0;" edge="1" parent="1" source="iajtI-PUkXcmTMDwEMEo-5" target="iajtI-PUkXcmTMDwEMEo-6">
          <mxGeometry relative="1" as="geometry" />
        </mxCell>
        <mxCell id="iajtI-PUkXcmTMDwEMEo-5" value="administrative.ui" style="shape=note;whiteSpace=wrap;html=1;backgroundOutline=1;darkOpacity=0.05;fillColor=#ffcd28;gradientColor=#ffa500;strokeColor=#d79b00;" vertex="1" parent="1">
          <mxGeometry x="210" y="445" width="120" height="70" as="geometry" />
        </mxCell>
        <mxCell id="iajtI-PUkXcmTMDwEMEo-12" style="edgeStyle=orthogonalEdgeStyle;rounded=0;orthogonalLoop=1;jettySize=auto;html=1;entryX=0;entryY=0.5;entryDx=0;entryDy=0;" edge="1" parent="1" source="iajtI-PUkXcmTMDwEMEo-6" target="iajtI-PUkXcmTMDwEMEo-3">
          <mxGeometry relative="1" as="geometry" />
        </mxCell>
        <mxCell id="iajtI-PUkXcmTMDwEMEo-6" value="administrative_ui.py" style="shape=document;whiteSpace=wrap;html=1;boundedLbl=1;fillColor=#ffcd28;strokeColor=#d79b00;gradientColor=#ffa500;" vertex="1" parent="1">
          <mxGeometry x="410" y="440" width="120" height="80" as="geometry" />
        </mxCell>
        <mxCell id="iajtI-PUkXcmTMDwEMEo-11" style="edgeStyle=orthogonalEdgeStyle;rounded=0;orthogonalLoop=1;jettySize=auto;html=1;entryX=0.25;entryY=0;entryDx=0;entryDy=0;" edge="1" parent="1" source="iajtI-PUkXcmTMDwEMEo-7" target="iajtI-PUkXcmTMDwEMEo-3">
          <mxGeometry relative="1" as="geometry" />
        </mxCell>
        <mxCell id="iajtI-PUkXcmTMDwEMEo-7" value="cipher.py" style="shape=document;whiteSpace=wrap;html=1;boundedLbl=1;fillColor=#ffcd28;strokeColor=#d79b00;gradientColor=#ffa500;" vertex="1" parent="1">
          <mxGeometry x="410" y="330" width="120" height="80" as="geometry" />
        </mxCell>
        <mxCell id="iajtI-PUkXcmTMDwEMEo-10" style="edgeStyle=orthogonalEdgeStyle;rounded=0;orthogonalLoop=1;jettySize=auto;html=1;entryX=0.008;entryY=0.375;entryDx=0;entryDy=0;entryPerimeter=0;" edge="1" parent="1" source="iajtI-PUkXcmTMDwEMEo-1" target="iajtI-PUkXcmTMDwEMEo-7">
          <mxGeometry relative="1" as="geometry" />
        </mxCell>
        <mxCell id="iajtI-PUkXcmTMDwEMEo-16" value="cryptography" style="shape=process;whiteSpace=wrap;html=1;backgroundOutline=1;fillColor=#e6d0de;gradientColor=#d5739d;strokeColor=#996185;" vertex="1" parent="1">
          <mxGeometry x="40" y="330" width="120" height="60" as="geometry" />
        </mxCell>
        <mxCell id="iajtI-PUkXcmTMDwEMEo-35" style="edgeStyle=orthogonalEdgeStyle;rounded=0;orthogonalLoop=1;jettySize=auto;html=1;" edge="1" parent="1" source="iajtI-PUkXcmTMDwEMEo-17" target="iajtI-PUkXcmTMDwEMEo-18">
          <mxGeometry relative="1" as="geometry" />
        </mxCell>
        <mxCell id="iajtI-PUkXcmTMDwEMEo-41" style="edgeStyle=orthogonalEdgeStyle;rounded=0;orthogonalLoop=1;jettySize=auto;html=1;entryX=0.192;entryY=1.013;entryDx=0;entryDy=0;entryPerimeter=0;" edge="1" parent="1" target="iajtI-PUkXcmTMDwEMEo-28">
          <mxGeometry relative="1" as="geometry">
            <mxPoint x="99.5" y="430" as="targetPoint" />
            <mxPoint x="99.5" y="760" as="sourcePoint" />
          </mxGeometry>
        </mxCell>
        <mxCell id="iajtI-PUkXcmTMDwEMEo-42" style="edgeStyle=orthogonalEdgeStyle;rounded=0;orthogonalLoop=1;jettySize=auto;html=1;entryX=0.15;entryY=-0.05;entryDx=0;entryDy=0;entryPerimeter=0;" edge="1" parent="1" source="iajtI-PUkXcmTMDwEMEo-17" target="iajtI-PUkXcmTMDwEMEo-22">
          <mxGeometry relative="1" as="geometry">
            <mxPoint x="430" y="420" as="targetPoint" />
            <Array as="points">
              <mxPoint x="90" y="585" />
              <mxPoint x="91" y="585" />
              <mxPoint x="91" y="420" />
              <mxPoint x="428" y="420" />
            </Array>
          </mxGeometry>
        </mxCell>
        <mxCell id="iajtI-PUkXcmTMDwEMEo-17" value="PySide6" style="rounded=0;whiteSpace=wrap;html=1;fillColor=#dae8fc;gradientColor=#7ea6e0;strokeColor=#6c8ebf;" vertex="1" parent="1">
          <mxGeometry x="30" y="760" width="120" height="60" as="geometry" />
        </mxCell>
        <mxCell id="iajtI-PUkXcmTMDwEMEo-18" value="administrative.py" style="shape=document;whiteSpace=wrap;html=1;boundedLbl=1;fillColor=#fff2cc;strokeColor=#d6b656;gradientColor=#ffd966;" vertex="1" parent="1">
          <mxGeometry x="570" y="440" width="120" height="80" as="geometry" />
        </mxCell>
        <mxCell id="iajtI-PUkXcmTMDwEMEo-19" style="edgeStyle=orthogonalEdgeStyle;rounded=0;orthogonalLoop=1;jettySize=auto;html=1;entryX=0;entryY=0.5;entryDx=0;entryDy=0;" edge="1" parent="1" source="iajtI-PUkXcmTMDwEMEo-20" target="iajtI-PUkXcmTMDwEMEo-22">
          <mxGeometry relative="1" as="geometry" />
        </mxCell>
        <mxCell id="iajtI-PUkXcmTMDwEMEo-20" value="administrative.ui" style="shape=note;whiteSpace=wrap;html=1;backgroundOutline=1;darkOpacity=0.05;fillColor=#ffcd28;gradientColor=#ffa500;strokeColor=#d79b00;" vertex="1" parent="1">
          <mxGeometry x="210" y="445" width="120" height="70" as="geometry" />
        </mxCell>
        <mxCell id="iajtI-PUkXcmTMDwEMEo-21" style="edgeStyle=orthogonalEdgeStyle;rounded=0;orthogonalLoop=1;jettySize=auto;html=1;entryX=0;entryY=0.5;entryDx=0;entryDy=0;" edge="1" parent="1" source="iajtI-PUkXcmTMDwEMEo-22" target="iajtI-PUkXcmTMDwEMEo-18">
          <mxGeometry relative="1" as="geometry" />
        </mxCell>
        <mxCell id="iajtI-PUkXcmTMDwEMEo-22" value="administrative_ui.py" style="shape=document;whiteSpace=wrap;html=1;boundedLbl=1;fillColor=#ffcd28;strokeColor=#d79b00;gradientColor=#ffa500;" vertex="1" parent="1">
          <mxGeometry x="410" y="440" width="120" height="80" as="geometry" />
        </mxCell>
        <mxCell id="iajtI-PUkXcmTMDwEMEo-23" style="edgeStyle=orthogonalEdgeStyle;rounded=0;orthogonalLoop=1;jettySize=auto;html=1;entryX=0.25;entryY=0;entryDx=0;entryDy=0;" edge="1" parent="1" source="iajtI-PUkXcmTMDwEMEo-24" target="iajtI-PUkXcmTMDwEMEo-18">
          <mxGeometry relative="1" as="geometry" />
        </mxCell>
        <mxCell id="iajtI-PUkXcmTMDwEMEo-24" value="cipher.py" style="shape=document;whiteSpace=wrap;html=1;boundedLbl=1;fillColor=#ffcd28;strokeColor=#d79b00;gradientColor=#ffa500;" vertex="1" parent="1">
          <mxGeometry x="410" y="330" width="120" height="80" as="geometry" />
        </mxCell>
        <mxCell id="iajtI-PUkXcmTMDwEMEo-25" style="edgeStyle=orthogonalEdgeStyle;rounded=0;orthogonalLoop=1;jettySize=auto;html=1;entryX=0;entryY=0.5;entryDx=0;entryDy=0;" edge="1" parent="1" source="iajtI-PUkXcmTMDwEMEo-26" target="iajtI-PUkXcmTMDwEMEo-28">
          <mxGeometry relative="1" as="geometry" />
        </mxCell>
        <mxCell id="iajtI-PUkXcmTMDwEMEo-26" value="SettingdDialog.ui" style="shape=note;whiteSpace=wrap;html=1;backgroundOutline=1;darkOpacity=0.05;fillColor=#ffcd28;gradientColor=#ffa500;strokeColor=#d79b00;" vertex="1" parent="1">
          <mxGeometry x="210" y="650" width="120" height="70" as="geometry" />
        </mxCell>
        <mxCell id="iajtI-PUkXcmTMDwEMEo-27" style="edgeStyle=orthogonalEdgeStyle;rounded=0;orthogonalLoop=1;jettySize=auto;html=1;entryX=0.25;entryY=0.988;entryDx=0;entryDy=0;entryPerimeter=0;" edge="1" parent="1" source="iajtI-PUkXcmTMDwEMEo-28" target="iajtI-PUkXcmTMDwEMEo-18">
          <mxGeometry relative="1" as="geometry" />
        </mxCell>
        <mxCell id="iajtI-PUkXcmTMDwEMEo-28" value="settingsDialog_ui.py" style="shape=document;whiteSpace=wrap;html=1;boundedLbl=1;fillColor=#ffcd28;strokeColor=#d79b00;gradientColor=#ffa500;" vertex="1" parent="1">
          <mxGeometry x="410" y="645" width="120" height="80" as="geometry" />
        </mxCell>
        <mxCell id="iajtI-PUkXcmTMDwEMEo-29" style="edgeStyle=orthogonalEdgeStyle;rounded=0;orthogonalLoop=1;jettySize=auto;html=1;entryX=0.008;entryY=0.375;entryDx=0;entryDy=0;entryPerimeter=0;" edge="1" parent="1" source="iajtI-PUkXcmTMDwEMEo-16" target="iajtI-PUkXcmTMDwEMEo-24">
          <mxGeometry relative="1" as="geometry" />
        </mxCell>
        <mxCell id="iajtI-PUkXcmTMDwEMEo-36" style="edgeStyle=orthogonalEdgeStyle;rounded=0;orthogonalLoop=1;jettySize=auto;html=1;entryX=0.5;entryY=0;entryDx=0;entryDy=0;" edge="1" parent="1" source="iajtI-PUkXcmTMDwEMEo-30" target="iajtI-PUkXcmTMDwEMEo-18">
          <mxGeometry relative="1" as="geometry" />
        </mxCell>
        <mxCell id="iajtI-PUkXcmTMDwEMEo-30" value="json" style="rounded=0;whiteSpace=wrap;html=1;fillColor=#dae8fc;gradientColor=#7ea6e0;strokeColor=#6c8ebf;" vertex="1" parent="1">
          <mxGeometry x="40" y="220" width="120" height="60" as="geometry" />
        </mxCell>
        <mxCell id="iajtI-PUkXcmTMDwEMEo-43" style="edgeStyle=orthogonalEdgeStyle;rounded=0;orthogonalLoop=1;jettySize=auto;html=1;entryX=0.75;entryY=0;entryDx=0;entryDy=0;" edge="1" parent="1" source="iajtI-PUkXcmTMDwEMEo-31" target="iajtI-PUkXcmTMDwEMEo-18">
          <mxGeometry relative="1" as="geometry" />
        </mxCell>
        <mxCell id="iajtI-PUkXcmTMDwEMEo-31" value="os" style="rounded=0;whiteSpace=wrap;html=1;fillColor=#dae8fc;gradientColor=#7ea6e0;strokeColor=#6c8ebf;" vertex="1" parent="1">
          <mxGeometry x="40" y="120" width="120" height="60" as="geometry" />
        </mxCell>
        <mxCell id="iajtI-PUkXcmTMDwEMEo-44" style="edgeStyle=orthogonalEdgeStyle;rounded=0;orthogonalLoop=1;jettySize=auto;html=1;entryX=1;entryY=0.25;entryDx=0;entryDy=0;" edge="1" parent="1" source="iajtI-PUkXcmTMDwEMEo-32" target="iajtI-PUkXcmTMDwEMEo-18">
          <mxGeometry relative="1" as="geometry" />
        </mxCell>
        <mxCell id="iajtI-PUkXcmTMDwEMEo-32" value="sys" style="rounded=0;whiteSpace=wrap;html=1;fillColor=#dae8fc;gradientColor=#7ea6e0;strokeColor=#6c8ebf;" vertex="1" parent="1">
          <mxGeometry x="40" y="20" width="120" height="60" as="geometry" />
        </mxCell>
=======
<mxfile host="Electron" agent="Mozilla/5.0 (Windows NT 10.0; Win64; x64) AppleWebKit/537.36 (KHTML, like Gecko) draw.io/24.7.17 Chrome/128.0.6613.36 Electron/32.0.1 Safari/537.36" version="24.7.17" pages="2">
  <diagram name="Page-1" id="n02zPbm6KEdVIElCw9b6">
    <mxGraphModel dx="794" dy="556" grid="1" gridSize="10" guides="1" tooltips="1" connect="1" arrows="1" fold="1" page="1" pageScale="1" pageWidth="1169" pageHeight="827" math="0" shadow="0">
      <root>
        <mxCell id="0" />
        <mxCell id="1" parent="0" />
        <mxCell id="MUidiiKsfbA5fLykq-wW-1" value="psycopg" style="edgeStyle=orthogonalEdgeStyle;rounded=0;orthogonalLoop=1;jettySize=auto;html=1;fillColor=#e51400;strokeColor=#B20000;strokeWidth=4;startArrow=classic;startFill=1;fontSize=14;" edge="1" parent="1" source="MUidiiKsfbA5fLykq-wW-2" target="MUidiiKsfbA5fLykq-wW-3">
          <mxGeometry x="-0.2863" relative="1" as="geometry">
            <mxPoint as="offset" />
          </mxGeometry>
        </mxCell>
        <mxCell id="MUidiiKsfbA5fLykq-wW-2" value="Lainaussovellus&lt;div&gt;lending.py&lt;/div&gt;" style="verticalLabelPosition=bottom;sketch=0;aspect=fixed;html=1;verticalAlign=top;strokeColor=none;align=center;outlineConnect=0;shape=mxgraph.citrix.tablet_1;" vertex="1" parent="1">
          <mxGeometry x="110" y="70" width="61" height="79" as="geometry" />
        </mxCell>
        <mxCell id="MUidiiKsfbA5fLykq-wW-3" value="PostgreSQL-palvelin&lt;div&gt;autolainaus-tietokanta&lt;/div&gt;" style="verticalLabelPosition=middle;sketch=0;aspect=fixed;html=1;verticalAlign=middle;strokeColor=none;align=left;outlineConnect=0;shape=mxgraph.citrix.database_server;labelPosition=right;" vertex="1" parent="1">
          <mxGeometry x="410" y="220" width="80" height="90" as="geometry" />
        </mxCell>
        <mxCell id="MUidiiKsfbA5fLykq-wW-4" value="psycopg" style="edgeStyle=orthogonalEdgeStyle;rounded=0;orthogonalLoop=1;jettySize=auto;html=1;fillColor=#e51400;strokeColor=#B20000;strokeWidth=4;startArrow=classic;startFill=1;fontSize=14;" edge="1" parent="1" source="MUidiiKsfbA5fLykq-wW-6" target="MUidiiKsfbA5fLykq-wW-3">
          <mxGeometry x="-0.3459" relative="1" as="geometry">
            <mxPoint as="offset" />
          </mxGeometry>
        </mxCell>
        <mxCell id="MUidiiKsfbA5fLykq-wW-5" style="edgeStyle=orthogonalEdgeStyle;rounded=0;orthogonalLoop=1;jettySize=auto;html=1;curved=1;endArrow=none;endFill=0;" edge="1" parent="1" source="MUidiiKsfbA5fLykq-wW-6" target="MUidiiKsfbA5fLykq-wW-7">
          <mxGeometry relative="1" as="geometry" />
        </mxCell>
        <mxCell id="MUidiiKsfbA5fLykq-wW-6" value="Hallintasovellus&lt;div&gt;administrative.py&lt;/div&gt;" style="verticalLabelPosition=bottom;sketch=0;aspect=fixed;html=1;verticalAlign=top;strokeColor=none;align=center;outlineConnect=0;shape=mxgraph.citrix.desktop;" vertex="1" parent="1">
          <mxGeometry x="100" y="370" width="89" height="98" as="geometry" />
        </mxCell>
        <mxCell id="MUidiiKsfbA5fLykq-wW-7" value="" style="verticalLabelPosition=bottom;sketch=0;aspect=fixed;html=1;verticalAlign=top;strokeColor=none;align=center;outlineConnect=0;shape=mxgraph.citrix.printer;" vertex="1" parent="1">
          <mxGeometry x="250" y="300" width="70" height="70" as="geometry" />
        </mxCell>
      </root>
    </mxGraphModel>
  </diagram>
  <diagram id="9Zi7W3lzYeUf1RVEpwSd" name="Page-2">
    <mxGraphModel dx="1222" dy="855" grid="1" gridSize="10" guides="1" tooltips="1" connect="1" arrows="1" fold="1" page="1" pageScale="1" pageWidth="1169" pageHeight="827" math="0" shadow="0">
      <root>
        <mxCell id="0" />
        <mxCell id="1" parent="0" />
        <mxCell id="0hJzVkQ4XadX9CaWnRAz-11" style="edgeStyle=orthogonalEdgeStyle;rounded=0;orthogonalLoop=1;jettySize=auto;html=1;entryX=0;entryY=0.5;entryDx=0;entryDy=0;" edge="1" parent="1" source="0hJzVkQ4XadX9CaWnRAz-1" target="0hJzVkQ4XadX9CaWnRAz-8">
          <mxGeometry relative="1" as="geometry" />
        </mxCell>
        <mxCell id="0hJzVkQ4XadX9CaWnRAz-1" value="cryptography" style="shape=process;whiteSpace=wrap;html=1;backgroundOutline=1;fillColor=#f8cecc;gradientColor=#ea6b66;strokeColor=#b85450;" vertex="1" parent="1">
          <mxGeometry x="40" y="260" width="120" height="60" as="geometry" />
        </mxCell>
        <mxCell id="0hJzVkQ4XadX9CaWnRAz-19" style="edgeStyle=orthogonalEdgeStyle;rounded=0;orthogonalLoop=1;jettySize=auto;html=1;entryX=0.5;entryY=0;entryDx=0;entryDy=0;" edge="1" parent="1" source="0hJzVkQ4XadX9CaWnRAz-2" target="0hJzVkQ4XadX9CaWnRAz-3">
          <mxGeometry relative="1" as="geometry" />
        </mxCell>
        <mxCell id="0hJzVkQ4XadX9CaWnRAz-2" value="json" style="rounded=0;whiteSpace=wrap;html=1;fillColor=#f5f5f5;gradientColor=#b3b3b3;strokeColor=#666666;" vertex="1" parent="1">
          <mxGeometry x="40" y="190" width="120" height="60" as="geometry" />
        </mxCell>
        <mxCell id="0hJzVkQ4XadX9CaWnRAz-3" value="administrative.py" style="shape=document;whiteSpace=wrap;html=1;boundedLbl=1;fillColor=#fff2cc;strokeColor=#d6b656;gradientColor=#ffd966;" vertex="1" parent="1">
          <mxGeometry x="610" y="350" width="120" height="80" as="geometry" />
        </mxCell>
        <mxCell id="0hJzVkQ4XadX9CaWnRAz-13" style="edgeStyle=orthogonalEdgeStyle;rounded=0;orthogonalLoop=1;jettySize=auto;html=1;entryX=0;entryY=0.5;entryDx=0;entryDy=0;" edge="1" parent="1" source="0hJzVkQ4XadX9CaWnRAz-6" target="0hJzVkQ4XadX9CaWnRAz-3">
          <mxGeometry relative="1" as="geometry" />
        </mxCell>
        <mxCell id="0hJzVkQ4XadX9CaWnRAz-6" value="administrative_ui.py" style="shape=document;whiteSpace=wrap;html=1;boundedLbl=1;fillColor=#ffcd28;strokeColor=#d79b00;gradientColor=#ffa500;" vertex="1" parent="1">
          <mxGeometry x="400" y="374" width="120" height="80" as="geometry" />
        </mxCell>
        <mxCell id="0hJzVkQ4XadX9CaWnRAz-14" style="edgeStyle=orthogonalEdgeStyle;rounded=0;orthogonalLoop=1;jettySize=auto;html=1;entryX=0;entryY=0.5;entryDx=0;entryDy=0;" edge="1" parent="1" source="0hJzVkQ4XadX9CaWnRAz-7" target="0hJzVkQ4XadX9CaWnRAz-6">
          <mxGeometry relative="1" as="geometry" />
        </mxCell>
        <mxCell id="0hJzVkQ4XadX9CaWnRAz-7" value="administrative.ui&lt;div&gt;&lt;br&gt;&lt;/div&gt;" style="shape=note;whiteSpace=wrap;html=1;backgroundOutline=1;darkOpacity=0.05;fillColor=#ffcd28;gradientColor=#ffa500;strokeColor=#d79b00;" vertex="1" parent="1">
          <mxGeometry x="220" y="379" width="120" height="70" as="geometry" />
        </mxCell>
        <mxCell id="0hJzVkQ4XadX9CaWnRAz-17" style="edgeStyle=orthogonalEdgeStyle;rounded=0;orthogonalLoop=1;jettySize=auto;html=1;entryX=0.25;entryY=0;entryDx=0;entryDy=0;" edge="1" parent="1" source="0hJzVkQ4XadX9CaWnRAz-8" target="0hJzVkQ4XadX9CaWnRAz-3">
          <mxGeometry relative="1" as="geometry" />
        </mxCell>
        <mxCell id="0hJzVkQ4XadX9CaWnRAz-8" value="cipher.py" style="shape=document;whiteSpace=wrap;html=1;boundedLbl=1;fillColor=#f8cecc;strokeColor=#b85450;gradientColor=#ea6b66;" vertex="1" parent="1">
          <mxGeometry x="400" y="250" width="120" height="80" as="geometry" />
        </mxCell>
        <mxCell id="0hJzVkQ4XadX9CaWnRAz-15" style="edgeStyle=orthogonalEdgeStyle;rounded=0;orthogonalLoop=1;jettySize=auto;html=1;entryX=0;entryY=0.5;entryDx=0;entryDy=0;" edge="1" parent="1" source="0hJzVkQ4XadX9CaWnRAz-9" target="0hJzVkQ4XadX9CaWnRAz-10">
          <mxGeometry relative="1" as="geometry" />
        </mxCell>
        <mxCell id="0hJzVkQ4XadX9CaWnRAz-18" style="edgeStyle=orthogonalEdgeStyle;rounded=0;orthogonalLoop=1;jettySize=auto;html=1;entryX=0.25;entryY=0.975;entryDx=0;entryDy=0;entryPerimeter=0;" edge="1" parent="1" source="0hJzVkQ4XadX9CaWnRAz-10" target="0hJzVkQ4XadX9CaWnRAz-3">
          <mxGeometry relative="1" as="geometry" />
        </mxCell>
        <mxCell id="0hJzVkQ4XadX9CaWnRAz-31" style="edgeStyle=orthogonalEdgeStyle;rounded=0;orthogonalLoop=1;jettySize=auto;html=1;entryX=0.75;entryY=0;entryDx=0;entryDy=0;" edge="1" parent="1" source="0hJzVkQ4XadX9CaWnRAz-20" target="0hJzVkQ4XadX9CaWnRAz-3">
          <mxGeometry relative="1" as="geometry" />
        </mxCell>
        <mxCell id="0hJzVkQ4XadX9CaWnRAz-20" value="os" style="rounded=0;whiteSpace=wrap;html=1;fillColor=#f5f5f5;gradientColor=#b3b3b3;strokeColor=#666666;" vertex="1" parent="1">
          <mxGeometry x="40" y="120" width="120" height="60" as="geometry" />
        </mxCell>
        <mxCell id="0hJzVkQ4XadX9CaWnRAz-32" style="edgeStyle=orthogonalEdgeStyle;rounded=0;orthogonalLoop=1;jettySize=auto;html=1;entryX=1;entryY=0.25;entryDx=0;entryDy=0;" edge="1" parent="1" source="0hJzVkQ4XadX9CaWnRAz-21" target="0hJzVkQ4XadX9CaWnRAz-3">
          <mxGeometry relative="1" as="geometry" />
        </mxCell>
        <mxCell id="0hJzVkQ4XadX9CaWnRAz-21" value="sys" style="rounded=0;whiteSpace=wrap;html=1;fillColor=#f5f5f5;gradientColor=#b3b3b3;strokeColor=#666666;" vertex="1" parent="1">
          <mxGeometry x="40" y="50" width="120" height="60" as="geometry" />
        </mxCell>
        <mxCell id="0hJzVkQ4XadX9CaWnRAz-29" style="edgeStyle=orthogonalEdgeStyle;rounded=0;orthogonalLoop=1;jettySize=auto;html=1;entryX=0.25;entryY=0;entryDx=0;entryDy=0;" edge="1" parent="1" source="0hJzVkQ4XadX9CaWnRAz-24" target="0hJzVkQ4XadX9CaWnRAz-6">
          <mxGeometry relative="1" as="geometry">
            <Array as="points">
              <mxPoint x="70" y="350" />
              <mxPoint x="430" y="350" />
            </Array>
          </mxGeometry>
        </mxCell>
        <mxCell id="8iOUU9dywGJK5fzneX7z-4" style="edgeStyle=orthogonalEdgeStyle;rounded=0;orthogonalLoop=1;jettySize=auto;html=1;entryX=0.25;entryY=0;entryDx=0;entryDy=0;" edge="1" parent="1" source="0hJzVkQ4XadX9CaWnRAz-24" target="0hJzVkQ4XadX9CaWnRAz-10">
          <mxGeometry relative="1" as="geometry">
            <Array as="points">
              <mxPoint x="110" y="475" />
              <mxPoint x="430" y="475" />
            </Array>
          </mxGeometry>
        </mxCell>
        <mxCell id="0hJzVkQ4XadX9CaWnRAz-24" value="PySide6" style="shape=process;whiteSpace=wrap;html=1;backgroundOutline=1;fillColor=#ffcd28;gradientColor=#ffa500;strokeColor=#d79b00;" vertex="1" parent="1">
          <mxGeometry x="60" y="575" width="120" height="60" as="geometry" />
        </mxCell>
        <mxCell id="0hJzVkQ4XadX9CaWnRAz-25" style="edgeStyle=orthogonalEdgeStyle;rounded=0;orthogonalLoop=1;jettySize=auto;html=1;entryX=0.517;entryY=0.838;entryDx=0;entryDy=0;entryPerimeter=0;" edge="1" parent="1" source="0hJzVkQ4XadX9CaWnRAz-24" target="0hJzVkQ4XadX9CaWnRAz-3">
          <mxGeometry relative="1" as="geometry" />
        </mxCell>
        <mxCell id="0hJzVkQ4XadX9CaWnRAz-10" value="settingsDialog_ui.py" style="shape=document;whiteSpace=wrap;html=1;boundedLbl=1;fillColor=#ffcd28;strokeColor=#d79b00;gradientColor=#ffa500;" vertex="1" parent="1">
          <mxGeometry x="400" y="495" width="120" height="80" as="geometry" />
        </mxCell>
        <mxCell id="0hJzVkQ4XadX9CaWnRAz-9" value="settingsDialog.ui" style="shape=note;whiteSpace=wrap;html=1;backgroundOutline=1;darkOpacity=0.05;fillColor=#ffcd28;gradientColor=#ffa500;strokeColor=#d79b00;" vertex="1" parent="1">
          <mxGeometry x="220" y="500" width="120" height="70" as="geometry" />
        </mxCell>
        <mxCell id="8iOUU9dywGJK5fzneX7z-5" value="psycopg2" style="shape=process;whiteSpace=wrap;html=1;backgroundOutline=1;fillColor=#dae8fc;gradientColor=#7ea6e0;strokeColor=#6c8ebf;" vertex="1" parent="1">
          <mxGeometry x="60" y="670" width="120" height="60" as="geometry" />
        </mxCell>
        <mxCell id="8iOUU9dywGJK5fzneX7z-6" value="dbOperations" style="shape=document;whiteSpace=wrap;html=1;boundedLbl=1;fillColor=#dae8fc;gradientColor=#7ea6e0;strokeColor=#6c8ebf;" vertex="1" parent="1">
          <mxGeometry x="260" y="672" width="120" height="80" as="geometry" />
        </mxCell>
        <mxCell id="8iOUU9dywGJK5fzneX7z-7" style="edgeStyle=orthogonalEdgeStyle;rounded=0;orthogonalLoop=1;jettySize=auto;html=1;entryX=0.004;entryY=0.348;entryDx=0;entryDy=0;entryPerimeter=0;" edge="1" parent="1" source="8iOUU9dywGJK5fzneX7z-5" target="8iOUU9dywGJK5fzneX7z-6">
          <mxGeometry relative="1" as="geometry" />
        </mxCell>
        <mxCell id="8iOUU9dywGJK5fzneX7z-8" style="edgeStyle=orthogonalEdgeStyle;rounded=0;orthogonalLoop=1;jettySize=auto;html=1;entryX=0.739;entryY=0.718;entryDx=0;entryDy=0;entryPerimeter=0;" edge="1" parent="1" source="8iOUU9dywGJK5fzneX7z-6" target="0hJzVkQ4XadX9CaWnRAz-3">
          <mxGeometry relative="1" as="geometry" />
        </mxCell>
>>>>>>> 07b16a6a85c7ac39b1c1e5023662ba758a545000
      </root>
    </mxGraphModel>
  </diagram>
</mxfile>
